<svg width="30" height="32" viewBox="0 0 30 32" fill="none" xmlns="http://www.w3.org/2000/svg">
    <style>
        #spaceship {fill: #000000;}
        @media (prefers-color-scheme: dark) {
            #spaceship {fill: #ffffff;}
        }
    </style>
    <path id="spaceship" d="M14 0C14.66 0 15.32 0 16 0C16 1.86353 16 3.72706 16 5.64706C16.66 5.64706 17.32 5.64706 18 5.64706C18 8.13176 18 10.6165 18 13.1765C18.66 13.1765 19.32 13.1765 20 13.1765C20 13.7976 20 14.4188 20 15.0588C20.66 15.0588 21.32 15.0588 22 15.0588C22 13.1953 22 11.3318 22 9.41177C22.66 9.41177 23.32 9.41177 24 9.41177C24 11.8965 24 14.3812 24 16.9412C24.66 16.9412 25.32 16.9412 26 16.9412C26 17.5624 26 18.1835 26 18.8235C26.66 18.8235 27.32 18.8235 28 18.8235C28 16.96 28 15.0965 28 13.1765C28.66 13.1765 29.32 13.1765 30 13.1765C30 19.3882 30 25.6 30 32C29.34 32 28.68 32 28 32C28 31.3788 28 30.7576 28 30.1176C27.34 30.1176 26.68 30.1176 26 30.1176C26 29.4965 26 28.8753 26 28.2353C25.34 28.2353 24.68 28.2353 24 28.2353C24 27.6141 24 26.9929 24 26.3529C23.34 26.3529 22.68 26.3529 22 26.3529C22 25.7318 22 25.1106 22 24.4706C21.34 24.4706 20.68 24.4706 20 24.4706C20 25.0918 20 25.7129 20 26.3529C19.34 26.3529 18.68 26.3529 18 26.3529C18 27.5953 18 28.8376 18 30.1176C17.34 30.1176 16.68 30.1176 16 30.1176C16 29.4965 16 28.8753 16 28.2353C15.34 28.2353 14.68 28.2353 14 28.2353C14 28.8565 14 29.4776 14 30.1176C13.34 30.1176 12.68 30.1176 12 30.1176C12 28.8753 12 27.6329 12 26.3529C11.34 26.3529 10.68 26.3529 10 26.3529C10 25.7318 10 25.1106 10 24.4706C9.34 24.4706 8.68 24.4706 8 24.4706C8 25.0918 8 25.7129 8 26.3529C7.34 26.3529 6.68 26.3529 6 26.3529C6 26.9741 6 27.5953 6 28.2353C5.34 28.2353 4.68 28.2353 4 28.2353C4 28.8565 4 29.4776 4 30.1176C3.34 30.1176 2.68 30.1176 2 30.1176C2 30.7388 2 31.36 2 32C1.34 32 0.68 32 0 32C0 25.7882 0 19.5765 0 13.1765C0.66 13.1765 1.32 13.1765 2 13.1765C2 15.04 2 16.9035 2 18.8235C2.66 18.8235 3.32 18.8235 4 18.8235C4 18.2024 4 17.5812 4 16.9412C4.66 16.9412 5.32 16.9412 6 16.9412C6 14.4565 6 11.9718 6 9.41177C6.66 9.41177 7.32 9.41177 8 9.41177C8 11.2753 8 13.1388 8 15.0588C8.66 15.0588 9.32 15.0588 10 15.0588C10 14.4376 10 13.8165 10 13.1765C10.66 13.1765 11.32 13.1765 12 13.1765C12 10.6918 12 8.20706 12 5.64706C12.66 5.64706 13.32 5.64706 14 5.64706C14 3.78353 14 1.92 14 0ZM14 13.1765C14 13.7976 14 14.4188 14 15.0588C13.34 15.0588 12.68 15.0588 12 15.0588C12 16.3012 12 17.5435 12 18.8235C12.66 18.8235 13.32 18.8235 14 18.8235C14 18.2024 14 17.5812 14 16.9412C14.66 16.9412 15.32 16.9412 16 16.9412C16 17.5624 16 18.1835 16 18.8235C16.66 18.8235 17.32 18.8235 18 18.8235C18 17.5812 18 16.3388 18 15.0588C17.34 15.0588 16.68 15.0588 16 15.0588C16 14.4376 16 13.8165 16 13.1765C15.34 13.1765 14.68 13.1765 14 13.1765Z"/>
</svg>
